<svg width="1750" height="621" viewBox="0 0 1750 621" fill="none" xmlns="http://www.w3.org/2000/svg">
<g clip-path="url(#clip0_918_225)">
<path d="M431.2 9.09999H460.3V198.1H570.4V226H431.2V9.09999ZM617.221 226L712.021 0.0999937H713.821L808.321 226H775.021L704.221 45.7L724.921 32.2L645.721 226H617.221ZM672.721 143.8H753.421L763.021 169H664.321L672.721 143.8ZM1057.97 232.9L890.273 62.8L898.673 64.9L899.273 226H870.173V2.49998H871.673L1037.57 173.2L1030.67 171.7L1030.07 9.09999H1058.87V232.9H1057.97ZM1171.65 96.4L1170.75 107.2L1174.65 101.8L1263.45 9.09999H1300.95L1211.25 102.1L1306.05 226H1269.15L1189.95 120.7L1171.65 138.4V226H1142.25V9.09999H1171.65V96.4ZM1345.26 226L1440.06 0.0999937H1441.86L1536.36 226H1503.06L1432.26 45.7L1452.96 32.2L1373.76 226H1345.26ZM1400.76 143.8H1481.46L1491.06 169H1392.36L1400.76 143.8Z" fill="#FFBE29"/>
<path d="M460.893 416.4L459.993 427.2L463.893 421.8L552.693 329.1H590.193L500.493 422.1L595.293 546H558.393L479.193 440.7L460.893 458.4V546H431.493V329.1H460.893V416.4ZM635.106 329.1H664.206V546H635.106V329.1ZM710.613 329.1H854.613V357H796.413V546H767.313V357H710.613V329.1ZM1051.05 529.8C1047.45 532.2 1042.55 534.9 1036.35 537.9C1030.15 540.9 1022.85 543.4 1014.45 545.4C1006.25 547.4 997.247 548.4 987.447 548.4C970.647 548.2 955.447 545.2 941.847 539.4C928.447 533.6 917.047 525.7 907.647 515.7C898.247 505.7 890.947 494.2 885.747 481.2C880.747 468 878.247 454 878.247 439.2C878.247 423 880.847 408.1 886.047 394.5C891.447 380.7 898.947 368.8 908.547 358.8C918.147 348.6 929.447 340.7 942.447 335.1C955.647 329.5 970.047 326.7 985.647 326.7C998.647 326.7 1010.45 328.5 1021.05 332.1C1031.65 335.5 1040.75 339.6 1048.35 344.4L1036.65 371.4C1030.65 367.4 1023.35 363.6 1014.75 360C1006.35 356.4 996.947 354.6 986.547 354.6C975.947 354.6 965.947 356.7 956.547 360.9C947.147 365.1 938.847 371 931.647 378.6C924.447 386.2 918.747 395.1 914.547 405.3C910.547 415.3 908.547 426.1 908.547 437.7C908.547 449.5 910.347 460.5 913.947 470.7C917.747 480.7 923.047 489.4 929.847 496.8C936.847 504.2 945.247 510 955.047 514.2C964.847 518.4 975.847 520.5 988.047 520.5C999.047 520.5 1008.85 518.8 1017.45 515.4C1026.05 512 1033.15 508.2 1038.75 504L1051.05 529.8ZM1271.65 329.1V546H1242.85V450.9H1129.15V546H1100.05V329.1H1129.15V423.3H1242.85V329.1H1271.65ZM1334.13 329.1H1475.13V357H1363.23V423H1463.13V450.9H1363.23V518.1H1479.33V546H1334.13V329.1ZM1717.63 552.9L1549.93 382.8L1558.33 384.9L1558.93 546H1529.83V322.5H1531.33L1697.23 493.2L1690.33 491.7L1689.73 329.1H1718.53V552.9H1717.63Z" fill="white"/>
<path fill-rule="evenodd" clip-rule="evenodd" d="M94.9543 27.4413C92.7016 24.6477 90.0944 22.0587 88.2508 19.016C81.0879 7.12864 76.6694 6.16456 64.7701 14.3122C58.7958 12.6692 52.891 10.0621 46.8275 9.64474C40.8475 9.23351 36.1048 12.9812 34.9401 19.3462C33.7894 25.6322 37.8592 28.9871 42.8182 31.7683C49.1041 35.2912 55.22 39.1242 61.4126 42.8208C58.2322 43.9289 55.8983 45.3044 59.8508 48.3776C62.932 50.7741 66.4671 52.727 69.0985 55.5348C73.1805 59.8903 73.778 64.2416 67.5123 67.7261C59.5025 72.1829 57.1444 77.7155 61.1511 86.0836C64.7104 93.5266 63.7279 99.9744 60.4785 106.868C58.4629 111.151 56.0542 115.543 55.3877 120.111C54.1297 128.737 49.4824 133.458 41.5089 136.017C34.7266 138.189 31.615 142.658 33.6671 150.181C35.1986 155.807 36.3189 161.595 37.0583 167.382C38.6202 179.705 40.1335 192.107 28.0149 200.883C26.5827 201.922 25.4199 204.013 25.1018 205.794C20.8638 229.623 14.5234 253.246 18.7609 277.9C19.1032 279.879 15.4872 283.913 13.0542 284.565C11.1499 285.082 6.29625 282.057 6.09763 280.246C5.2326 272.299 5.61751 264.216 5.48785 256.188C5.45746 254.04 5.19614 251.893 5.04015 249.746C4.33719 249.701 3.62816 249.652 2.92524 249.608C2.22834 251.581 0.777917 253.621 0.958183 255.513C2.00955 266.578 1.40589 278.37 5.16577 288.497C13.4795 310.888 14.8673 333.865 16.2613 357.212C17.3005 374.612 20.7241 391.857 22.7521 409.212C23.6536 416.91 25.4788 425.106 23.8156 432.381C20.2442 448.063 24.867 461.942 29.7956 476.136C33.9526 488.135 37.8298 500.227 41.7702 512.305C45.9028 524.976 49.0145 538.093 54.3546 550.23C59.2266 561.325 64.9901 573.062 77.2441 577.973C90.8917 583.43 104.957 588.017 119.139 591.888C124.641 593.387 131.616 593.543 136.788 591.483C155.52 584.01 173.662 575.072 192.258 567.25C198.742 564.523 206.029 563.772 212.751 561.525C229.603 555.894 246.798 551.164 260.57 538.675C268.579 531.418 277.44 524.934 286.564 519.104C298.101 511.736 304.438 500.572 309.061 488.747C314.711 474.291 318.339 459.049 322.931 444.17C329.049 424.329 324.325 404.398 323.168 384.556C322.769 377.573 319.814 370.734 318.072 364.025C308.232 365.115 306.036 362.854 307.313 354.011C308.346 346.842 307.094 341.117 300.666 336.437C298.339 334.738 296.422 329.286 297.437 326.847C299.497 321.888 297.575 320.065 294.301 317.176C289.372 312.833 283.852 308.352 280.921 302.72C274.454 290.304 267.703 278.425 257.776 268.268C254.796 265.219 254.03 259.375 253.575 254.688C253.196 250.73 255.965 246.336 255.193 242.578C253.009 231.993 249.958 221.563 246.768 211.213C245.044 205.606 241.454 205.476 237.322 209.384C235.399 211.201 232.753 214.375 231.129 213.994C225.111 212.556 219.38 209.9 213.361 207.627C219.067 197.701 223.113 196.052 231.414 200.396C230.817 196.5 231.129 192.923 229.702 190.283C225.9 183.257 222.215 175.839 216.901 170.027C206.416 158.544 202.68 138.923 181.989 140.485C182.4 134.916 184.491 129.489 182.779 125.848C175.747 110.912 172.486 93.7352 158.135 82.8326C154.464 80.0451 151.533 75.9813 149.055 72.0109C145.733 66.6771 141.438 64.0576 135.203 64.6104L130.169 59.5764C125.108 55.0467 120.05 50.5091 114.996 45.9791C108.316 39.8005 101.633 33.6136 94.9542 27.4349L94.9543 27.4413ZM26.9655 134.849C28.0675 134.108 29.1676 133.374 30.2696 132.639C29.1554 129.888 28.7583 126.391 26.8035 124.505C19.934 117.903 8.62021 116.167 0 121.256C9.77047 126.18 18.364 130.512 26.9655 134.849Z" fill="white"/>
<path fill-rule="evenodd" clip-rule="evenodd" d="M26.9655 134.847C18.364 130.509 9.77071 126.178 0.000244141 121.249C8.61993 116.165 19.9343 117.901 26.8037 124.499C28.7586 126.379 29.1556 129.875 30.2698 132.632C29.1678 133.372 28.0617 134.107 26.9657 134.847L26.9655 134.847Z" fill="white"/>
<path d="M90 289L94.5 304.5L99.5 307.5L103 301.5L101.5 289L96 275.5L92 277L90 289Z" fill="#644905"/>
<path d="M109 258L108 272L114.5 273.5L122.5 265.5L124 253.5L122.5 245.5L117 247.5L109 258Z" fill="#644905"/>
<path d="M137.5 229L135 239.5L140.5 243.5L145.5 242.5L156 229L158 217.5L149 220L137.5 229Z" fill="#644905"/>
<path d="M116 302.5L110 312.5L120.5 313L130 309L137 299.5L135.5 294L116 302.5Z" fill="#644905"/>
<path d="M133 270L126 278L127.5 282.5L134.5 284.5L144.5 278L153.5 270L151 263L133 270Z" fill="#644905"/>
<path d="M162.5 241L156 246.5L160.5 251.5H169.5L181 245.5L186 238.5L179.5 233.5L162.5 241Z" fill="#644905"/>
<path d="M172 213.5L169 221L170.5 226.5L180.5 223.5L192.5 212V204.5L183.5 208L172 213.5Z" fill="#644905"/>
<path d="M203 229L200 236L214 242.5L228 236L229 230.5L217 228L203 229Z" fill="#644905"/>
<path d="M206.5 209L205.5 215.5L214 219L231.5 211L237.5 203.5H223.5L214.5 206L206.5 209Z" fill="#644905"/>
<path d="M248 209L243 214.5L245.5 221L255.5 223.5L270 221L271 214.5L258.5 210L248 209Z" fill="#644905"/>
<path d="M246 231.5L243 236L248 244L259.5 249L272 245L270 237L259.5 234L246 231.5Z" fill="#644905"/>
<path d="M285.5 221L282.5 230.5L306.5 233L316.5 230.5L313.5 221H301.5H285.5Z" fill="#644905"/>
<path d="M288 245H285.5V250L288 259.5L301.5 266L309.5 265L301.5 249L288 245Z" fill="#644905"/>
<path d="M320 244L316.5 245L322 255L340 258L345 254L334.5 244H320Z" fill="#644905"/>
<path d="M147.5 342L137.5 357L141.5 364L147.5 365L157.5 353.5V336.5L147.5 342Z" fill="#644905"/>
<path d="M179.5 325.5L167.5 336.5V343.5L175.5 345L186.5 338.5L195 328L192 324.5L179.5 325.5Z" fill="#644905"/>
<path d="M212 323L208.5 330L214.5 333H224L235 328L238 318.5H227.5L212 323Z" fill="#644905"/>
<path d="M149 370.5V375.5L151.5 379.5L165.5 381.5L177 377.5V369.5L165.5 370.5H149Z" fill="#644905"/>
<path d="M181 352L179.5 357L189.5 363L204.5 361.5L210 353.5L201.5 350.5L189.5 352H181Z" fill="#644905"/>
<path d="M225.5 340.5L221 347.5L236 356L251 355L249 349.5L238 341.5L225.5 340.5Z" fill="#644905"/>
<path d="M255.5 323L252 328L273.5 331.5L285.5 324.5L277.5 318.5L265 320L255.5 323Z" fill="#644905"/>
<path d="M267.5 341.5L262.5 345L265 350.5L279 360H290.5L292 357L287 348.5L276.5 343.5L267.5 341.5Z" fill="#644905"/>
<path d="M300.5 328L297 333L299 335.5L307.5 339.5H325L329.5 335.5L317 328L307.5 326L300.5 328Z" fill="#644905"/>
<path d="M309 348.5L304.5 355L307.5 367L317 373L326.5 375L325 363L317 352.5L309 348.5Z" fill="#644905"/>
<path d="M341 343.5L339 349.5L344.5 356L357.5 360L370 358.5L368.5 350.5L359.5 345L350 343.5H341Z" fill="#644905"/>
<path d="M343.5 367L341 372L340 376.5L348 388L357.5 394L359.5 390.5L357.5 379L351 370.5L343.5 367Z" fill="#644905"/>
<path d="M375 368.5L369 374.5L372 382L383.5 390.5L395 392L393 383.5L381.5 373L375 368.5Z" fill="#644905"/>
<path d="M104.705 308.147C110.082 301.622 106.112 285.673 105.938 285.002C104.748 280.274 102.26 270.449 94.274 268.372M104.705 308.147L104.32 307.828C104.32 307.828 104.32 307.828 104.32 307.828M104.705 308.147C103.125 310.051 100.972 311.058 98.4725 311.058C98.3859 311.058 98.2966 311.055 98.2074 311.052C98.1181 311.049 98.0288 311.047 97.9423 311.047M104.705 308.147L104.319 307.829C104.319 307.829 104.32 307.828 104.32 307.828M104.32 307.828C105.584 306.293 106.323 304.172 106.697 301.795C107.07 299.422 107.074 296.836 106.904 294.414C106.565 289.571 105.537 285.449 105.454 285.127L105.454 285.124C104.857 282.756 103.95 279.174 102.214 275.929C100.478 272.685 97.9521 269.845 94.1489 268.856M104.32 307.828C102.836 309.616 100.825 310.558 98.4725 310.558C98.3948 310.558 98.3132 310.555 98.2225 310.552L98.219 310.552C98.1339 310.55 98.0405 310.547 97.9483 310.547M94.1489 268.856C94.1492 268.856 94.1495 268.856 94.1497 268.856L94.274 268.372M94.1489 268.856C94.1487 268.856 94.1484 268.856 94.1481 268.855L94.274 268.372M94.1489 268.856C93.0875 268.584 91.9694 268.856 91.1513 269.57C90.3349 270.284 89.9212 271.364 90.0527 272.444L89.5563 272.505M94.274 268.372C93.0513 268.058 91.7637 268.372 90.8223 269.194C89.8809 270.016 89.4049 271.261 89.5563 272.505M89.5563 272.505L90.0526 272.444C90.3266 274.67 89.5361 276.768 88.6826 279.033C88.6717 279.062 88.6609 279.09 88.65 279.119M89.5563 272.505L88.1821 278.943M88.1821 278.943C88.1666 278.984 88.1511 279.025 88.1356 279.067C87.6738 280.294 87.1956 281.565 86.8188 282.968M88.1821 278.943L88.65 279.119M88.1821 278.943L88.6501 279.119C88.6501 279.119 88.6501 279.119 88.65 279.119M86.8188 282.968C85.8991 286.441 85.6718 291.624 86.2561 296.158C87.4355 305.268 91.6881 310.7 97.9312 311.047M86.8188 282.968L87.3017 283.098C87.3018 283.097 87.3018 283.097 87.3019 283.097M86.8188 282.968L87.3021 283.096C87.3021 283.096 87.302 283.097 87.3019 283.097M97.9312 311.047L97.9423 311.047M97.9312 311.047L97.9388 310.547L97.9423 310.547C97.9435 310.547 97.9448 310.547 97.9461 310.547C97.9468 310.547 97.9475 310.547 97.9483 310.547M97.9312 311.047L97.9423 310.847V311.047M97.9423 311.047L97.9465 310.771L97.9589 310.547C97.9559 310.547 97.9529 310.547 97.9499 310.547L97.9499 310.547L97.949 310.547C97.9488 310.547 97.9485 310.547 97.9483 310.547M97.9483 310.547C94.9859 310.38 92.4951 309.013 90.5883 306.58C88.6699 304.133 87.3344 300.592 86.752 296.094M86.752 296.094C86.174 291.609 86.4026 286.494 87.3019 283.097M86.752 296.094L86.2578 296.158L86.752 296.094C86.752 296.094 86.752 296.094 86.752 296.094ZM87.3019 283.097C87.6723 281.718 88.1427 280.468 88.6061 279.236C88.6208 279.197 88.6354 279.158 88.65 279.119M95.9619 278.178L96.5032 279.221C97.8396 281.794 98.6299 284.956 99.0723 286.725L99.0763 286.741C99.7612 289.459 100.293 293.05 100.422 296.251C100.486 297.852 100.45 299.37 100.277 300.64C100.107 301.888 99.7934 302.984 99.2374 303.66C99.2351 303.663 99.2325 303.666 99.2297 303.67C99.1836 303.727 99.0733 303.864 98.8773 303.938C98.7016 304.005 98.5072 304.004 98.3244 303.993C98.324 303.993 98.3236 303.993 98.3232 303.993L95.9619 278.178ZM95.9619 278.178L95.5858 279.291C95.3921 279.864 95.1871 280.41 94.9897 280.936C94.9259 281.106 94.8629 281.274 94.8013 281.44M95.9619 278.178L93.6974 284.655C93.9931 283.591 94.3868 282.539 94.8013 281.44M94.8013 281.44C94.8015 281.44 94.8017 281.439 94.8018 281.439L95.2696 281.615L94.8009 281.441C94.801 281.441 94.8012 281.441 94.8013 281.44Z" fill="#FFB700" stroke="#FFB700"/>
<path d="M114.652 309.436L114.163 309.332C114.162 309.335 114.161 309.339 114.161 309.343C114.144 309.419 114.106 309.593 114.175 309.795C114.234 309.97 114.356 310.117 114.476 310.248C115.136 310.988 116.034 311.291 116.973 311.34C117.906 311.388 118.915 311.188 119.872 310.889C121.787 310.29 123.617 309.254 124.445 308.749L124.445 308.749C128.039 306.557 131.077 303.692 132.388 301.922L132.388 301.921C133.052 301.022 133.631 300.054 134.231 299.05L134.298 298.938C134.298 298.938 134.298 298.938 134.298 298.938C134.688 298.288 135.074 297.645 135.491 296.992L135.996 296.202L135.059 296.223L135.048 296.223L135.004 296.224L134.962 296.232C132.135 296.793 129.184 298.135 127.519 298.891L127.483 298.908L127.483 298.908C124.93 300.069 121.79 301.894 119.208 303.79C117.917 304.737 116.753 305.712 115.869 306.639C115.002 307.55 114.342 308.478 114.163 309.334L114.652 309.436ZM114.652 309.436C115.247 306.591 122.648 301.656 127.69 299.363L124.185 308.322C122.551 309.317 117.033 312.369 114.847 309.913C114.609 309.653 114.62 309.588 114.652 309.436ZM107.729 307.96L107.741 307.907L107.741 307.897C108.16 305.98 109.35 304.103 110.961 302.345C112.582 300.576 114.601 298.96 116.599 297.581C120.593 294.824 124.454 293.049 124.77 292.904C126.993 291.895 130.36 290.371 133.981 289.704C137.601 289.036 141.397 289.239 144.541 291.594L144.543 291.595C145.413 292.241 145.902 293.281 145.856 294.373C145.799 295.463 145.217 296.448 144.287 297.021C142.367 298.195 141.207 300.148 139.965 302.24L139.942 302.278L139.942 302.278C139.248 303.449 138.546 304.629 137.665 305.817C135.57 308.642 131.718 311.999 127.842 314.354L127.842 314.355C123.943 316.726 120.235 317.896 117.162 317.896C114.104 317.896 111.484 316.76 109.561 314.611C107.844 312.679 107.212 310.394 107.729 307.96Z" fill="#FFB700" stroke="#FFB700"/>
<path d="M107.818 276.978L108.181 277.201C109.484 278.001 110.845 278.403 112.215 278.403C113.164 278.403 114.117 278.212 115.045 277.834C116.877 277.089 118.53 275.576 119.988 273.662C121.443 271.753 122.678 269.48 123.683 267.268C125.694 262.843 126.762 258.724 126.846 258.395L126.846 258.395C127.448 256.031 128.354 252.452 128.371 248.77C128.388 245.091 127.518 241.389 124.642 238.704C123.842 237.961 122.725 237.662 121.676 237.905L121.676 237.906C120.613 238.15 119.74 238.902 119.346 239.915C118.528 242.022 116.81 243.504 114.959 245.1L114.933 245.122C114.933 245.122 114.933 245.122 114.932 245.122C113.906 246.009 112.873 246.914 111.853 247.987C109.441 250.548 106.821 254.934 105.194 259.163L107.818 276.978ZM107.818 276.978C105.498 275.419 104.074 273.116 103.578 270.214C103.054 267.149 103.564 263.399 105.194 259.163L107.818 276.978ZM116.634 252.494L116.633 252.494C115.134 254.083 112.878 257.536 111.366 261.416L111.355 261.427L111.315 261.529C110.964 262.435 110.268 264.419 110.018 266.411C109.893 267.407 109.875 268.436 110.088 269.346C110.302 270.264 110.759 271.095 111.606 271.615L111.609 271.616C111.757 271.706 111.927 271.801 112.112 271.826C112.324 271.855 112.49 271.782 112.561 271.751C112.564 271.75 112.567 271.748 112.57 271.747C113.379 271.417 114.173 270.604 114.914 269.591C115.67 268.556 116.424 267.238 117.128 265.8C118.537 262.922 119.777 259.509 120.468 256.792C120.921 255.024 121.726 251.853 121.782 248.952L121.804 247.778L120.942 248.575C120.376 249.099 119.797 249.603 119.234 250.09L119.233 250.091C119.182 250.135 119.131 250.18 119.081 250.224C118.211 250.982 117.379 251.707 116.634 252.494Z" fill="#FFB700" stroke="#FFB700"/>
<path d="M153.096 274.775L153.096 274.775C151.011 277.6 147.159 280.978 143.294 283.334C139.385 285.716 135.644 286.896 132.582 286.896C129.533 286.896 126.913 285.77 125.002 283.633C123.371 281.809 122.716 279.67 123.075 277.388L123.075 277.388L123.16 276.981C123.565 275.042 124.756 273.144 126.376 271.366C127.993 269.592 130.007 267.971 132.002 266.587C135.991 263.819 139.851 262.034 140.159 261.893L140.159 261.893C142.382 260.874 145.743 259.339 149.362 258.662C152.979 257.985 156.775 258.18 159.93 260.53L159.93 260.531C160.804 261.179 161.301 262.221 161.254 263.31C161.207 264.4 160.625 265.396 159.696 265.968L159.695 265.969C157.774 267.154 156.625 269.099 155.38 271.205L155.363 271.234C155.362 271.235 155.362 271.235 155.362 271.235C155.317 271.311 155.272 271.387 155.226 271.463C154.566 272.571 153.91 273.673 153.096 274.775ZM150.876 265.941L150.424 265.569L139.594 277.301C143.143 275.137 146.118 272.302 147.384 270.581L147.787 270.878C147.787 270.878 147.787 270.878 147.787 270.878C148.475 269.946 149.071 268.94 149.686 267.895C149.81 267.689 149.931 267.486 150.051 267.285C150.323 266.83 150.588 266.386 150.876 265.941Z" fill="#FFB700" stroke="#FFB700"/>
<path d="M141.198 231.068L141.197 231.067C143.651 227.649 146.737 224.84 148.61 223.674C149.58 223.068 150.623 222.551 151.703 222.017L151.724 222.007C151.82 221.958 151.917 221.91 152.014 221.862C152.592 221.573 153.171 221.284 153.766 220.964L154.803 220.406L154.484 221.539C153.698 224.341 152.122 227.202 151.238 228.797C149.89 231.252 147.831 234.243 145.742 236.672C144.698 237.886 143.637 238.972 142.644 239.782C141.67 240.577 140.695 241.165 139.829 241.279L141.198 231.068ZM141.198 231.068L141.196 231.068C140.632 231.856 139.457 233.602 138.712 235.467C138.34 236.399 138.063 237.391 138.039 238.325C138.015 239.265 138.247 240.183 138.934 240.898L141.198 231.068ZM154.397 212.165C155.032 211.298 156.096 210.795 157.163 210.813L139.645 247.846C137.605 247.846 135.731 247.022 134.206 245.436C132.149 243.291 131.255 240.591 131.518 237.508C131.783 234.41 133.219 230.911 135.864 227.225L135.864 227.224C138.497 223.541 142.142 219.957 145.125 218.084C146.368 217.309 147.602 216.691 148.814 216.096L148.815 216.096L148.888 216.059C151.062 214.983 153.081 213.983 154.397 212.165Z" fill="#FFB700" stroke="#FFB700"/>
<path d="M163.202 256.218C165.443 256.215 167.929 255.814 170.587 255.006L170.589 255.006C174.924 253.7 179.492 251.41 182.233 249.189C183.38 248.254 184.359 247.286 185.324 246.332C185.324 246.332 185.324 246.332 185.324 246.332L185.406 246.25C187.116 244.551 188.702 242.974 190.843 242.325C191.885 242.005 192.702 241.188 193.021 240.146C193.34 239.104 193.125 237.977 192.448 237.12C189.984 234.049 186.359 232.907 182.69 232.652C179.022 232.397 175.388 233.036 172.98 233.458L172.973 233.46L172.972 233.46C172.644 233.517 168.46 234.271 163.9 235.946C161.621 236.783 159.263 237.845 157.251 239.155C155.234 240.468 153.602 242.006 152.722 243.782L163.202 256.218ZM163.202 256.218L163.202 256.218C158.237 256.218 154.691 254.284 152.837 250.689M163.202 256.218L152.837 250.689M152.837 250.689C151.652 248.39 151.616 246.015 152.722 243.782L152.837 250.689ZM182.315 240.087L183.13 239.332L182.025 239.222C181.675 239.187 181.308 239.187 180.96 239.187H180.947C178.355 239.187 175.674 239.66 174.098 239.941C171.336 240.423 167.841 241.404 164.868 242.594C163.381 243.19 162.012 243.843 160.924 244.521C159.983 245.107 159.194 245.747 158.756 246.429L158.715 246.429L158.578 246.702C158.576 246.706 158.574 246.709 158.572 246.714C158.535 246.787 158.454 246.948 158.47 247.162C158.484 247.347 158.567 247.522 158.646 247.675L158.646 247.675C159.104 248.558 159.9 249.075 160.799 249.356C161.692 249.635 162.719 249.693 163.721 249.642C165.726 249.54 167.754 248.993 168.681 248.714C172.713 247.498 176.365 245.48 178.079 244.091C178.969 243.379 179.799 242.56 180.652 241.707C181.205 241.154 181.749 240.609 182.315 240.087Z" fill="#FFB700" stroke="#FFB700"/>
<path d="M170.917 230.606L171.066 230.621C171.369 230.652 171.665 230.673 171.956 230.673C173.91 230.673 176.028 230.005 178.134 228.962C180.236 227.922 182.295 226.524 184.122 225.103C187.778 222.26 190.467 219.356 190.674 219.129L190.675 219.127C192.329 217.327 194.828 214.604 196.591 211.372C198.353 208.141 199.342 204.47 198.079 200.744L198.079 200.743C197.732 199.711 196.897 198.923 195.844 198.631C194.792 198.34 193.675 198.584 192.838 199.289C191.13 200.734 188.951 201.226 186.578 201.761L186.469 201.786L186.466 201.786C185.145 202.079 183.816 202.377 182.416 202.844L182.414 202.844C179.082 203.944 174.68 206.567 171.244 209.511L170.917 230.606ZM170.917 230.606L170.9 230.615M170.917 230.606L170.9 230.615M170.9 230.615C168.503 230.305 166.573 229.003 165.302 226.81C163.811 224.239 163.584 221.403 164.574 218.471C165.568 215.525 167.798 212.466 171.243 209.511L170.9 230.615ZM184.504 209.078L184.502 209.079C182.438 209.763 178.845 211.699 175.678 214.377L175.665 214.377L175.525 214.499C174.792 215.133 173.238 216.55 172.073 218.183C171.491 218.999 170.987 219.896 170.742 220.797C170.496 221.706 170.505 222.654 171.005 223.514L171.006 223.516C171.096 223.669 171.2 223.832 171.349 223.942C171.513 224.063 171.688 224.084 171.756 224.092C171.762 224.093 171.767 224.093 171.772 224.094L171.772 224.094L171.782 224.095C172.654 224.193 173.743 223.855 174.88 223.315C176.037 222.764 177.326 221.962 178.629 221.031C181.234 219.167 183.944 216.751 185.839 214.685C187.079 213.338 189.282 210.928 190.71 208.404L191.3 207.361L190.144 207.675C189.44 207.866 188.745 208.019 188.046 208.174C188.007 208.182 187.968 208.191 187.929 208.199C186.726 208.46 185.59 208.724 184.504 209.078Z" fill="#FFB700" stroke="#FFB700"/>
<path d="M212.363 244.576L212.363 244.566C216.892 244.331 221.877 243.184 225.052 241.681L225.052 241.681C226.366 241.061 227.536 240.357 228.697 239.658L228.73 239.638L228.731 239.638C228.773 239.612 228.815 239.587 228.857 239.562C230.912 238.331 232.829 237.182 235.04 237.057C236.132 236.991 237.116 236.398 237.668 235.463L237.67 235.46C238.233 234.52 238.29 233.376 237.83 232.39L237.829 232.389C236.17 228.823 232.92 226.849 229.414 225.727C225.908 224.604 222.22 224.357 219.78 224.194C218.912 224.141 214.64 223.916 209.934 224.484C207.579 224.768 205.133 225.249 202.956 226.04C200.776 226.833 198.904 227.924 197.656 229.406L197.656 229.407C196.053 231.303 195.523 233.627 196.126 236.141L212.363 244.576ZM212.363 244.576L212.363 244.566C211.768 244.598 211.183 244.609 210.604 244.609C202.555 244.609 197.4 241.443 196.126 236.141L212.363 244.576ZM219.347 230.771C218.517 230.716 217.623 230.684 216.674 230.683V230.683C213.858 230.683 210.813 230.926 208.268 231.402C206.996 231.64 205.837 231.938 204.888 232.3C203.954 232.656 203.162 233.096 202.691 233.652L202.691 233.652L202.689 233.655C202.686 233.658 202.683 233.662 202.679 233.667C202.632 233.721 202.515 233.857 202.477 234.059C202.44 234.248 202.479 234.441 202.522 234.613C202.755 235.579 203.402 236.271 204.207 236.759C205.007 237.242 205.99 237.543 206.974 237.732C208.944 238.11 211.045 238.062 212.014 238.012L212.016 238.012C216.224 237.782 220.25 236.688 222.244 235.747L222.244 235.747C223.276 235.259 224.281 234.662 225.318 234.035L225.318 234.035L225.322 234.033C225.97 233.633 226.621 233.238 227.301 232.866L228.347 232.294L227.206 231.949C224.427 231.108 221.168 230.889 219.347 230.771Z" fill="#FFB700" stroke="#FFB700"/>
<path d="M230.117 199.608L230.028 200.1C230.071 200.108 230.113 200.116 230.155 200.123C232.531 200.553 234.731 200.95 236.857 200.28C237.897 199.952 239.022 200.166 239.879 200.843C240.726 201.521 241.194 202.573 241.109 203.66L241.109 203.661C240.816 207.583 238.474 210.576 235.593 212.863C232.711 215.152 229.351 216.685 227.129 217.699L227.128 217.699C226.95 217.781 224.605 218.838 221.383 219.874C218.154 220.913 214.085 221.917 210.445 221.917C208.033 221.917 206.069 221.483 204.588 220.65L204.097 220.375C202.219 219.144 201.083 217.277 200.781 214.91C200.411 211.958 201.308 209.257 203.36 206.941C205.423 204.613 208.667 202.664 212.989 201.286L212.989 201.286C217.315 199.904 222.377 199.204 225.878 199.49L225.879 199.49C227.229 199.597 228.48 199.822 229.717 200.044C229.821 200.063 229.925 200.082 230.029 200.1L230.117 199.608ZM230.117 199.608L230.178 199.619C232.608 200.058 234.7 200.436 236.706 199.803C237.907 199.424 239.206 199.673 240.191 200.452L200.285 214.973C199.506 208.762 204.083 203.601 212.837 200.809C217.208 199.413 222.337 198.699 225.919 198.991C227.294 199.101 228.569 199.33 229.802 199.552C229.907 199.571 230.012 199.589 230.117 199.608ZM225.351 206.035L224.793 205.991L224.794 206.016C222.498 205.947 218.675 206.379 214.991 207.55C214.063 207.841 212.081 208.537 210.372 209.587C209.518 210.112 208.705 210.742 208.128 211.478C207.547 212.219 207.185 213.096 207.309 214.083C207.331 214.256 207.363 214.446 207.459 214.607C207.569 214.789 207.727 214.873 207.795 214.909C207.798 214.911 207.801 214.912 207.804 214.914C208.566 215.339 209.696 215.449 210.949 215.393C212.228 215.336 213.727 215.099 215.289 214.748C218.414 214.047 221.852 212.878 224.405 211.717C226.064 210.963 229.038 209.61 231.341 207.838L232.274 207.121L231.11 206.947C230.319 206.83 229.559 206.691 228.856 206.561C227.657 206.334 226.496 206.124 225.351 206.035Z" fill="#FFB700" stroke="#FFB700"/>
<path d="M247.632 234.275H248.832C250.715 234.275 253.272 234.823 255.843 235.615C258.424 236.409 261.067 237.464 263.134 238.505C263.134 238.505 263.134 238.506 263.134 238.506L263.175 238.526C264.808 239.348 267.699 240.803 269.907 242.659L270.8 243.41L269.64 243.539C268.87 243.625 268.109 243.732 267.375 243.84L267.374 243.84C266.177 244.013 265.005 244.179 263.86 244.223L247.632 234.275ZM247.632 234.275L247.717 234.362M247.632 234.275L247.717 234.362M247.717 234.362C247.318 234.423 246.965 234.524 246.669 234.675C246.666 234.677 246.663 234.678 246.66 234.68C246.586 234.716 246.424 234.796 246.308 234.977C246.206 235.135 246.168 235.325 246.142 235.496C245.979 236.477 246.306 237.366 246.859 238.128C247.407 238.885 248.196 239.546 249.03 240.103C250.698 241.22 252.653 241.993 253.563 242.322L253.564 242.322C257.519 243.747 261.652 244.313 263.859 244.223L247.717 234.362ZM263.353 250.798H262.829L262.829 250.803C259.418 250.721 255.061 249.855 251.318 248.502C247.049 246.958 243.883 244.888 241.911 242.485C239.949 240.094 239.158 237.361 239.641 234.424L239.642 234.424C240.06 231.87 241.458 229.942 243.67 228.816C245.439 227.917 247.667 227.659 250.069 227.81C252.465 227.962 254.99 228.519 257.318 229.209C261.971 230.589 265.775 232.483 266.083 232.636C268.267 233.731 271.568 235.392 274.361 237.791C277.153 240.188 279.377 243.271 279.516 247.203C279.554 248.294 279.057 249.326 278.174 249.974C277.289 250.614 276.152 250.781 275.131 250.416C273.009 249.655 270.756 249.983 268.338 250.334L268.312 250.338C266.97 250.533 265.608 250.724 264.132 250.788C263.885 250.798 263.625 250.798 263.353 250.798Z" fill="#FFB700" stroke="#FFB700"/>
<path d="M350.06 260.955L350.06 260.955C350.954 260.324 351.481 259.3 351.472 258.209C351.414 254.277 349.258 251.146 346.521 248.686C343.782 246.225 340.521 244.49 338.364 243.346C338.062 243.187 334.296 241.213 329.671 239.732C327.358 238.991 324.846 238.379 322.455 238.175C320.059 237.971 317.829 238.18 316.049 239.037L315.607 239.25L315.602 239.24C313.611 240.345 312.336 242.156 311.887 244.533L350.06 260.955ZM350.06 260.955C349.518 261.338 348.862 261.545 348.185 261.545C347.783 261.545 347.388 261.471 347.009 261.329C344.893 260.52 342.632 260.795 340.193 261.094C338.839 261.257 337.477 261.416 336.001 261.448C332.501 261.522 327.492 260.512 323.251 258.874M350.06 260.955L323.251 258.874M341.91 254.289L341.669 254.309C341.083 254.358 340.512 254.425 339.935 254.493C339.755 254.514 339.575 254.535 339.393 254.556C339.392 254.556 339.391 254.556 339.39 254.556L339.333 254.06L341.91 254.289ZM341.91 254.289L342.043 254.088L342.043 254.088L342.288 253.722L341.955 253.433C339.951 251.692 337.367 250.256 335.711 249.372L341.91 254.289ZM323.251 258.874C319.015 257.234 315.893 255.09 313.975 252.641M323.251 258.874L313.975 252.641M313.975 252.641C312.066 250.204 311.337 247.454 311.887 244.533L313.975 252.641ZM325.606 252.73C329.559 254.263 333.693 254.918 335.86 254.862L320.874 245.089C320.149 245.089 319.543 245.176 319.1 245.392L318.903 244.933C318.9 244.934 318.897 244.935 318.893 244.937C318.893 244.937 318.893 244.937 318.892 244.937C318.814 244.971 318.644 245.043 318.519 245.227C318.413 245.383 318.37 245.574 318.338 245.744L318.338 245.744C318.155 246.721 318.463 247.618 318.998 248.392C319.53 249.161 320.304 249.838 321.124 250.413C322.766 251.564 324.702 252.379 325.606 252.73L325.606 252.73Z" fill="#FFB700" stroke="#FFB700"/>
<path d="M238.201 213.623L238.282 213.344L238.275 213.337C239.147 210.621 241.011 208.595 243.725 207.33C246.544 206.016 250.296 205.519 254.811 205.973L254.811 205.973C259.318 206.423 264.25 207.805 267.35 209.455L267.351 209.456C268.655 210.145 269.792 210.909 270.92 211.668L270.921 211.669L270.95 211.689C272.982 213.05 274.864 214.312 277.108 214.553L277.11 214.553C278.199 214.666 279.146 215.303 279.663 216.272C280.18 217.239 280.18 218.384 279.672 219.353C277.842 222.837 274.501 224.653 270.946 225.607C267.401 226.558 263.719 226.632 261.278 226.681L261.261 226.681H260.779C259.391 226.681 255.158 226.603 250.696 225.764C248.466 225.345 246.194 224.739 244.198 223.865C242.198 222.99 240.51 221.862 239.406 220.418C237.894 218.439 237.476 216.105 238.201 213.623ZM244.513 215.462L244.324 216.104L244.469 216.104C244.509 216.257 244.589 216.361 244.627 216.411C244.63 216.415 244.633 216.419 244.635 216.423L244.635 216.423L244.638 216.426C245.168 217.122 246.166 217.677 247.342 218.126C248.541 218.584 250.013 218.964 251.588 219.265C254.737 219.866 258.356 220.161 261.145 220.107C262.967 220.074 266.236 220.01 269.049 219.302L270.201 219.011L269.188 218.391C268.727 218.108 268.291 217.818 267.853 217.526C267.662 217.399 267.471 217.272 267.277 217.145C267.276 217.144 267.275 217.144 267.275 217.144L267.263 217.136C266.256 216.461 265.287 215.812 264.271 215.27C262.321 214.228 258.35 212.947 254.165 212.52L254.165 212.52L254.159 212.519C253.56 212.465 252.633 212.387 251.603 212.387C250.258 212.387 248.71 212.507 247.398 212.929C246.095 213.349 244.912 214.108 244.513 215.462Z" fill="#FFB700" stroke="#FFB700"/>
<path d="M302.085 269.182L302.151 269.2C302.196 269.213 302.242 269.225 302.288 269.238C304.596 269.875 306.753 270.47 308.375 271.99L308.376 271.99C308.985 272.562 309.781 272.872 310.62 272.872C310.863 272.872 311.105 272.844 311.336 272.788L311.341 272.787C312.403 272.543 313.276 271.791 313.67 270.778L313.67 270.777C315.103 267.112 314.288 263.398 312.683 260.087C311.078 256.779 308.719 253.945 307.157 252.069L307.152 252.063C306.938 251.807 304.201 248.559 300.478 245.443C298.616 243.884 296.521 242.369 294.382 241.276C292.238 240.18 290.091 239.529 288.111 239.646C285.625 239.799 283.592 241.007 282.181 243.184C280.572 245.684 280.209 248.506 281.056 251.482C281.907 254.473 283.986 257.634 287.287 260.748C290.585 263.854 294.848 266.68 298.128 267.949L302.085 269.182ZM302.085 269.182L302.073 269.182M302.085 269.182L302.073 269.182M302.073 269.182C300.783 268.83 299.486 268.472 298.129 267.95L302.073 269.182ZM288.125 246.312L288.038 246.226L287.705 246.742C287.165 247.576 287.111 248.523 287.314 249.442C287.515 250.355 287.976 251.275 288.518 252.118C289.603 253.806 291.088 255.294 291.796 255.958C294.854 258.851 298.424 261.011 300.485 261.806L300.487 261.807C301.502 262.194 302.574 262.491 303.667 262.795C303.732 262.813 303.798 262.831 303.863 262.849C304.072 262.908 304.279 262.966 304.487 263.023C305.013 263.169 305.536 263.314 306.064 263.482L307.193 263.842L306.663 262.782C305.396 260.247 303.354 257.79 302.178 256.375C302.151 256.343 302.125 256.312 302.099 256.281L302.099 256.28C300.356 254.186 297.812 251.69 295.327 249.714C294.084 248.726 292.844 247.859 291.718 247.237C290.609 246.624 289.542 246.211 288.665 246.211H288.546H288.53L288.513 246.212C288.509 246.212 288.504 246.212 288.498 246.212C288.434 246.216 288.282 246.224 288.125 246.312Z" fill="#FFB700" stroke="#FFB700"/>
<path d="M285.446 226.796L285.479 226.628C285.885 224.557 287.89 223.505 289.886 222.961C291.924 222.405 294.195 222.308 295.535 222.308H295.816H295.821V222.308C300.397 222.351 304.835 223.356 307.047 224.295L285.446 226.796ZM285.446 226.796L285.45 226.804M285.446 226.796L285.45 226.804M285.45 226.804C285.421 227.019 285.421 227.214 285.472 227.395C285.539 227.635 285.679 227.784 285.762 227.873L285.765 227.876C286.411 228.578 287.543 229.088 288.87 229.467C290.22 229.853 291.859 230.128 293.602 230.304C297.087 230.658 301.05 230.629 304.083 230.295L304.159 230.286C306.325 230.048 310.15 229.628 313.228 228.39L314.29 227.963L313.255 227.474C312.394 227.066 311.583 226.626 310.779 226.189C310.679 226.135 310.579 226.08 310.479 226.026C309.323 225.388 308.199 224.782 307.048 224.295L285.45 226.804ZM281.175 232.584L280.938 232.327C279.178 230.414 278.515 228.023 279.037 225.371L279.037 225.371C280.213 219.351 286.074 215.744 295.513 215.744H295.889C301.403 215.798 306.769 217.042 309.601 218.237L309.602 218.237C311.047 218.843 312.335 219.545 313.602 220.238L313.603 220.239L313.665 220.272C316.039 221.565 318.201 222.743 320.684 222.777C321.773 222.796 322.778 223.35 323.38 224.262C323.98 225.172 324.084 226.317 323.67 227.324C322.074 231.177 318.698 233.418 315.011 234.768C311.323 236.118 307.4 236.549 304.809 236.831C304.805 236.832 304.798 236.832 304.789 236.833C304.503 236.864 301.962 237.131 298.607 237.131C295.548 237.131 292.02 236.916 288.799 236.198C285.713 235.51 282.971 234.374 281.175 232.584Z" fill="#FFB700" stroke="#FFB700"/>
<path d="M145.552 370.047L145.552 370.048C143.97 371.964 143.47 374.288 144.103 376.791L144.103 376.791C145.419 381.992 150.493 385.102 158.334 385.102C159.016 385.102 159.72 385.081 160.435 385.038C164.952 384.749 169.927 383.549 173.091 382.015C174.378 381.387 175.516 380.689 176.632 380.004L176.736 379.94L176.738 379.939L176.75 379.931C178.831 378.64 180.763 377.441 183.026 377.291C184.114 377.216 185.09 376.605 185.634 375.667C186.179 374.728 186.226 373.572 185.757 372.597L185.757 372.596C184.056 369.05 180.782 367.113 177.263 366.03C173.743 364.947 170.052 364.743 167.613 364.613C166.912 364.575 163.971 364.455 160.377 364.742C156.773 365.03 152.564 365.724 149.299 367.291L148.784 366.439C151.864 364.147 154.442 360.109 156.287 356.516C158.124 352.939 159.197 349.877 159.289 349.605L159.29 349.603C160.087 347.293 161.291 343.801 161.619 340.134C161.947 336.47 161.392 332.709 158.753 329.792C158.02 328.983 156.94 328.589 155.86 328.739C154.781 328.89 153.852 329.565 153.373 330.542L153.372 330.543C152.374 332.562 150.551 333.893 148.59 335.324L148.545 335.356L148.545 335.357L148.514 335.379C147.429 336.174 146.334 336.976 145.24 337.955L145.552 370.047ZM145.552 370.047C146.019 369.479 146.581 368.966 147.223 368.5L146.72 367.641C146.466 367.759 146.186 367.859 145.901 367.955C145.134 368.189 144.374 368.31 143.629 368.31C142.046 368.31 140.526 367.797 139.111 366.752L139.111 366.751M145.552 370.047L139.111 366.751M139.111 366.751C136.714 364.987 135.373 362.478 135.11 359.395C134.846 356.298 135.67 352.605 137.652 348.524M139.111 366.751L137.652 348.524M137.652 348.524C139.633 344.455 142.616 340.303 145.24 337.955L137.652 348.524ZM149.625 342.826C148.044 344.246 145.611 347.339 143.79 350.931L143.741 350.907L143.302 351.806L143.344 351.826C142.886 352.815 142.207 354.455 141.851 356.128C141.643 357.109 141.538 358.133 141.674 359.057C141.81 359.989 142.197 360.855 142.998 361.444L143.071 361.497L143.158 361.522L143.656 361.662L143.798 361.703L143.94 361.659C144.776 361.399 145.639 360.654 146.466 359.705C147.308 358.738 148.171 357.489 148.995 356.115C150.644 353.367 152.168 350.071 153.083 347.419L153.084 347.417C153.097 347.377 153.111 347.336 153.126 347.294C153.725 345.542 154.752 342.534 155.045 339.722L155.167 338.544L154.237 339.278C153.629 339.758 153.03 340.197 152.423 340.641L152.422 340.642C152.336 340.705 152.25 340.769 152.164 340.832C151.278 341.483 150.415 342.117 149.625 342.826L149.625 342.826ZM150.623 374.226L150.616 374.235L150.609 374.245C150.607 374.248 150.603 374.252 150.6 374.257C150.559 374.31 150.454 374.445 150.421 374.638C150.389 374.822 150.426 375.01 150.47 375.185L150.47 375.186C150.712 376.15 151.367 376.835 152.178 377.313C152.983 377.787 153.969 378.076 154.956 378.253C156.929 378.607 159.031 378.534 159.999 378.474L160.001 378.474C164.197 378.2 168.211 377.062 170.194 376.099C171.186 375.624 172.135 375.04 173.11 374.44C173.163 374.408 173.216 374.375 173.269 374.343L173.269 374.343C173.92 373.942 174.562 373.546 175.235 373.161L176.26 372.575L175.126 372.246C172.336 371.438 169.078 371.253 167.255 371.156L167.253 371.156C166.587 371.123 165.864 371.101 165.108 371.101C162.252 371.101 159.091 371.36 156.436 371.864C155.109 372.115 153.895 372.43 152.904 372.81C151.929 373.184 151.103 373.645 150.623 374.226Z" fill="#FFB700" stroke="#FFB700"/>
<path d="M200.638 320.77L200.684 320.961C201.617 324.78 200.316 328.354 198.285 331.423C196.252 334.494 193.532 336.993 191.732 338.641L191.725 338.647C191.445 338.901 188.717 341.368 185.066 343.783C181.345 346.246 176.772 348.583 172.886 348.583C172.298 348.583 171.735 348.532 171.206 348.43C168.772 347.953 166.91 346.481 165.807 344.142C164.542 341.452 164.557 338.608 165.791 335.772C167.032 332.922 169.512 330.066 173.199 327.416C176.882 324.771 181.487 322.533 184.903 321.718C186.285 321.39 187.599 321.21 188.898 321.033C188.947 321.026 188.995 321.019 189.043 321.013L189.153 320.998C191.557 320.673 193.772 320.373 195.595 319.074L195.596 319.074C196.489 318.435 197.623 318.285 198.645 318.67C199.605 319.031 200.332 319.802 200.638 320.77ZM179.578 339.508C182.04 338.048 184.623 336.155 186.618 334.415L186.622 334.435L187.302 333.804C187.352 333.758 187.404 333.71 187.457 333.661C188.815 332.403 191.111 330.276 192.688 327.963L193.35 326.992L192.192 327.188C191.432 327.316 190.681 327.424 189.948 327.521L189.944 327.521C189.849 327.534 189.755 327.548 189.662 327.561C188.549 327.718 187.48 327.868 186.446 328.114L186.446 328.114C184.295 328.629 180.471 330.295 177.052 332.749C176.261 333.315 174.594 334.593 173.295 336.121C172.646 336.885 172.068 337.736 171.747 338.614C171.424 339.498 171.351 340.443 171.772 341.342C171.845 341.499 171.933 341.672 172.071 341.796C172.229 341.938 172.406 341.971 172.481 341.986C172.486 341.987 172.491 341.988 172.495 341.988L172.498 341.989C173.359 342.155 174.472 341.909 175.65 341.466C176.85 341.014 178.202 340.325 179.578 339.508Z" fill="#FFB700" stroke="#FFB700"/>
<path d="M200.326 346.956L200.36 346.961L200.381 346.961C202.793 347.33 206.425 347.89 209.806 349.3C213.201 350.715 216.271 352.958 217.621 356.653L217.622 356.654C217.997 357.677 217.838 358.822 217.199 359.705L217.198 359.706C216.574 360.572 215.501 361.085 214.447 361.067C212.236 360.989 210.305 361.936 208.22 362.958C208.178 362.979 208.136 363 208.093 363.02L207.935 363.094L207.935 363.094L207.927 363.098L207.925 363.099C206.711 363.695 205.478 364.301 204.088 364.821C201.107 365.931 196.625 366.629 192.393 366.629C191.99 366.629 191.597 366.618 191.196 366.607C186.661 366.457 183.008 365.467 180.389 363.791C177.783 362.123 176.184 359.77 175.737 356.828C175.349 354.275 176.08 352.012 177.836 350.256C179.206 348.886 181.165 347.959 183.406 347.355C185.642 346.753 188.122 346.483 190.492 346.401C195.233 346.238 199.472 346.828 200.326 346.956ZM207.371 355.759L207.359 355.005L206.834 355.237C204.269 354.244 201.266 353.777 199.494 353.502C199.438 353.494 199.384 353.485 199.33 353.477L199.33 353.477C197.267 353.158 194.72 352.973 192.242 352.973C190.152 352.973 188.09 353.104 186.378 353.401C185.522 353.55 184.742 353.742 184.085 353.986C183.435 354.227 182.869 354.532 182.474 354.927L182.466 354.935L182.458 354.944C182.455 354.947 182.452 354.951 182.447 354.955C182.404 355.001 182.287 355.124 182.233 355.308C182.179 355.491 182.197 355.683 182.225 355.864C182.376 356.846 182.964 357.589 183.726 358.142C184.482 358.691 185.437 359.074 186.402 359.346C188.334 359.89 190.433 360.021 191.402 360.054L191.404 360.054C195.611 360.185 199.712 359.444 201.785 358.671C202.874 358.271 203.924 357.751 205.011 357.213L205.015 357.211L205.015 357.211L205.02 357.208C205.591 356.918 206.21 356.612 206.855 356.321L207.383 356.534L207.371 355.781L207.371 355.759Z" fill="#FFB700" stroke="#FFB700"/>
<path d="M209.522 336.09L209.522 336.09C207.292 335.012 205.862 333.119 205.394 330.585L205.393 330.583C204.843 327.657 205.575 324.907 207.485 322.473C209.405 320.027 212.526 317.888 216.757 316.253L216.758 316.253C220.952 314.627 225.963 313.637 229.511 313.69L229.511 313.69C230.939 313.711 232.259 313.871 233.565 314.029L233.688 314.044L233.689 314.044L233.754 314.052C236.177 314.348 238.418 314.622 240.517 313.82L240.519 313.819C241.531 313.425 242.675 313.565 243.567 314.194C244.461 314.825 244.986 315.849 244.967 316.936L244.967 316.938C244.91 320.87 242.751 324 240.011 326.457C237.27 328.915 234.007 330.648 231.849 331.792C231.647 331.898 229.145 333.211 225.747 334.498C222.334 335.791 218.069 337.036 214.337 337.036C212.422 337.036 210.812 336.709 209.522 336.09ZM229.365 320.254L229.365 320.254H229.355H229.15C229.15 320.254 229.15 320.254 229.15 320.254C226.906 320.254 222.917 320.906 219.113 322.375L219.112 322.376C218.208 322.726 216.272 323.542 214.63 324.693C213.81 325.268 213.036 325.945 212.505 326.713C211.969 327.487 211.661 328.384 211.844 329.361L211.844 329.361C211.876 329.533 211.919 329.719 212.019 329.872C212.14 330.054 212.303 330.129 212.377 330.163C212.379 330.164 212.38 330.164 212.382 330.165C213.169 330.544 214.306 330.588 215.554 330.457C216.829 330.323 218.311 329.997 219.85 329.553C222.929 328.666 226.291 327.293 228.768 325.978L228.77 325.977C228.812 325.954 228.855 325.931 228.898 325.908C230.523 325.036 233.316 323.537 235.451 321.683L236.345 320.906L235.164 320.807C234.561 320.757 233.974 320.687 233.384 320.617C233.222 320.598 233.06 320.579 232.897 320.56L232.897 320.56C232.8 320.549 232.703 320.537 232.607 320.526C231.497 320.398 230.427 320.274 229.365 320.254Z" fill="#FFB700" stroke="#FFB700"/>
<path d="M244.576 341.888L244.363 341.797L244.361 341.796C244.035 341.658 240.126 340.002 235.405 338.905C233.039 338.355 230.484 337.95 228.084 337.942C225.678 337.933 223.471 338.323 221.764 339.323C219.623 340.581 218.346 342.591 218.081 345.154L218.081 345.154C217.772 348.111 218.725 350.793 220.827 353.063C222.939 355.345 226.225 357.223 230.579 358.505L230.58 358.505C234.011 359.521 238.032 360.129 241.301 360.129C242.089 360.129 242.828 360.097 243.498 360.024L243.501 360.024L243.501 360.024C244.95 359.877 246.287 359.605 247.607 359.337L247.65 359.328L247.651 359.328L247.744 359.309C250.113 358.824 252.311 358.375 254.468 359.002C255.512 359.303 256.638 359.077 257.482 358.373L257.483 358.373C258.319 357.678 258.76 356.617 258.657 355.527L244.576 341.888ZM244.576 341.888L244.596 341.877M244.576 341.888L244.596 341.877M244.596 341.877C246.834 342.843 250.105 344.281 252.944 346.439C255.874 348.665 258.281 351.609 258.657 355.526L244.596 341.877ZM224.617 345.834C224.633 345.657 224.659 345.462 224.754 345.297C224.856 345.122 225.011 345.031 225.067 344.998C225.072 344.995 225.076 344.993 225.08 344.991L225.854 344.514L225.851 344.683C226.428 344.522 227.136 344.451 227.928 344.451C231.844 344.451 237.975 346.2 241.769 347.835L224.617 345.834ZM224.617 345.834C224.516 346.822 224.897 347.691 225.494 348.419C226.087 349.142 226.914 349.754 227.779 350.261C229.51 351.275 231.506 351.93 232.439 352.204M224.617 345.834L241.77 347.835L241.771 347.836C243.452 348.558 246.447 349.844 248.784 351.571L249.732 352.273L248.569 352.467C247.8 352.595 247.062 352.744 246.326 352.896C245.139 353.144 243.989 353.377 242.833 353.488C240.627 353.712 236.461 353.398 232.439 352.204M232.439 352.204C232.439 352.204 232.438 352.204 232.438 352.204L232.58 351.724M232.439 352.204C232.439 352.204 232.439 352.204 232.439 352.204L232.58 351.724M232.58 351.724C236.552 352.904 240.653 353.207 242.784 352.99C243.909 352.882 245.035 352.655 246.225 352.406M232.58 351.724L246.225 352.406M246.225 352.406C246.741 352.3 247.263 352.194 247.798 352.095C247.93 352.187 248.061 352.28 248.189 352.375L248.486 351.973L248.404 351.48C248.238 351.508 248.074 351.536 247.911 351.566C245.728 350.081 243.121 348.96 241.572 348.294C237.806 346.671 231.747 344.951 227.928 344.951L246.225 352.406Z" fill="#FFB700" stroke="#FFB700"/>
<path d="M266.095 337.886L266.096 337.885C267.958 337.325 270.126 337.436 272.387 337.967C274.643 338.497 276.955 339.437 279.08 340.49C282.989 342.429 286.22 344.73 287.248 345.489L287.247 345.498L287.464 345.661C289.416 347.13 292.365 349.358 294.683 352.22C297 355.081 298.636 358.514 298.069 362.405L298.069 362.408C297.919 363.484 297.235 364.415 296.256 364.895C295.818 365.11 295.32 365.223 294.82 365.223C294.236 365.223 293.674 365.073 293.179 364.783L293.176 364.781C291.245 363.668 289.013 363.58 286.616 363.486C286.573 363.485 286.53 363.483 286.487 363.481L286.461 363.48C285.103 363.426 283.739 363.372 282.295 363.172C278.814 362.685 274.017 360.906 270.099 358.625L270.099 358.625C266.177 356.344 263.432 353.737 261.922 351.017C260.419 348.311 260.129 345.479 261.132 342.682L261.132 342.681C262 340.239 263.711 338.596 266.095 337.886ZM289.02 357.014L289.538 357.049L289.553 356.529L289.554 356.519L289.559 356.329L289.437 356.184C287.585 353.967 284.987 352.004 283.53 350.903L283.512 350.89L283.512 350.89C281.326 349.24 278.528 347.538 275.873 346.247C274.545 345.601 273.245 345.054 272.069 344.668C270.901 344.284 269.823 344.048 268.95 344.048C268.605 344.048 268.275 344.083 267.99 344.164C267.986 344.165 267.982 344.166 267.978 344.167C267.903 344.189 267.732 344.237 267.585 344.391C267.455 344.528 267.381 344.707 267.321 344.878L267.792 345.045L267.321 344.877C266.987 345.813 267.151 346.746 267.559 347.595C267.963 348.437 268.622 349.228 269.341 349.926C270.782 351.322 272.566 352.434 273.405 352.922C277.042 355.047 281.009 356.339 283.194 356.642C284.339 356.808 285.512 356.852 286.729 356.895C286.803 356.899 286.879 356.902 286.955 356.905C287.614 356.935 288.309 356.966 289.02 357.014Z" fill="#FFB700" stroke="#FFB700"/>
<path d="M251.332 332.851L251.332 332.85C251.328 332.848 251.325 332.845 251.321 332.842C249.4 331.28 248.44 329.111 248.563 326.532L248.563 326.532C248.702 323.559 250.046 321.049 252.463 319.117C254.892 317.175 258.419 315.808 262.912 315.188L262.912 315.188C267.409 314.567 272.524 314.753 275.921 315.621L275.923 315.621C277.311 315.971 278.561 316.43 279.794 316.884L279.908 316.926L279.91 316.926C279.968 316.947 280.026 316.969 280.083 316.99C282.333 317.809 284.407 318.565 286.606 318.272C287.686 318.132 288.766 318.536 289.49 319.344C290.21 320.149 290.484 321.265 290.221 322.329C289.263 326.143 286.444 328.696 283.214 330.46C279.983 332.226 276.41 333.165 274.047 333.783L274.046 333.783L274.033 333.787C273.797 333.856 267.626 335.455 261.47 335.455C256.809 335.455 253.43 334.551 251.332 332.851ZM255.127 326.832L255.066 328.151L255.474 327.731C255.477 327.733 255.479 327.734 255.481 327.736C255.481 327.736 255.482 327.736 255.482 327.736C256.16 328.283 257.253 328.584 258.495 328.743C259.765 328.905 261.283 328.927 262.883 328.849C266.083 328.692 269.672 328.127 272.384 327.414L272.421 327.405C274.194 326.94 277.33 326.118 279.882 324.765L280.92 324.214L279.804 323.848C279.055 323.602 278.348 323.345 277.646 323.086L277.646 323.085C276.5 322.664 275.397 322.266 274.288 321.978L274.285 321.977C272.823 321.606 270.625 321.388 268.395 321.388C266.824 321.388 265.287 321.498 263.816 321.696L263.816 321.696L263.812 321.696C262.85 321.833 260.776 322.183 258.912 322.927C257.981 323.298 257.072 323.78 256.378 324.405C255.679 325.036 255.173 325.838 255.127 326.832Z" fill="#FFB700" stroke="#FFB700"/>
<path d="M304.244 348.351C305.998 346.454 308.22 345.608 310.681 345.868L310.681 345.87C312.651 346.088 314.655 347.094 316.58 348.538C318.501 349.979 320.307 351.83 321.876 353.684C325.013 357.392 327.157 361.064 327.323 361.353L327.324 361.355L327.327 361.36C328.547 363.475 330.391 366.672 331.41 370.207C332.429 373.743 332.6 377.542 330.564 380.907L330.563 380.909C330.002 381.845 329.022 382.435 327.938 382.495H327.757C326.736 382.495 325.758 382.007 325.137 381.19C323.779 379.383 321.73 378.427 319.518 377.396L319.485 377.38L319.485 377.38C318.251 376.806 317.006 376.221 315.744 375.468C312.728 373.658 309.008 370.158 306.289 366.529L306.289 366.529C303.564 362.896 302.054 359.428 301.724 356.337C301.396 353.261 302.233 350.543 304.244 348.351ZM319.125 369.812L319.128 369.809C319.98 370.315 320.887 370.755 321.824 371.197L321.802 371.25L322.705 371.677L322.734 371.62C323.264 371.87 323.801 372.126 324.336 372.402L325.391 372.947L325.043 371.811C324.193 369.04 322.568 366.23 321.651 364.644L321.643 364.631C320.241 362.204 318.118 359.257 315.979 356.873C314.909 355.681 313.826 354.619 312.816 353.83C311.825 353.056 310.837 352.49 309.968 352.395L309.958 352.394L309.947 352.394C309.943 352.393 309.938 352.393 309.932 352.392C309.863 352.387 309.693 352.373 309.513 352.451C309.34 352.525 309.203 352.659 309.08 352.793L309.449 353.131L309.081 352.792C308.407 353.524 308.194 354.449 308.238 355.389C308.282 356.323 308.581 357.308 308.972 358.23C309.756 360.077 310.967 361.796 311.548 362.573L311.549 362.575C314.08 365.938 317.232 368.68 319.125 369.812Z" fill="#FFB700" stroke="#FFB700"/>
<path d="M371.911 366.025L371.91 366.025C369.446 366.339 367.493 367.689 366.236 369.958L371.911 366.025ZM371.911 366.025C373.892 365.77 376.085 366.273 378.3 367.22C380.509 368.166 382.699 369.537 384.658 370.968C387.932 373.36 390.52 375.892 391.414 376.8L391.406 376.809L391.73 377.149L391.731 377.15C393.417 378.917 395.967 381.589 397.791 384.786C399.616 387.98 400.678 391.631 399.492 395.383L399.491 395.387C399.173 396.425 398.349 397.233 397.305 397.543L397.305 397.543L397.299 397.545C397.003 397.638 396.685 397.685 396.366 397.685C395.615 397.685 394.873 397.421 394.292 396.944L394.292 396.943C392.576 395.535 390.381 395.086 388.029 394.606C387.985 394.597 387.941 394.588 387.896 394.579L387.896 394.578M371.911 366.025L387.896 394.578M387.896 394.578C386.563 394.308 385.213 394.031 383.812 393.596L387.896 394.578ZM372.511 387.14C376.012 390.02 380.457 392.547 383.811 393.595L372.511 387.14ZM372.511 387.14C369.006 384.256 366.719 381.241 365.668 378.315M372.511 387.14L365.668 378.315M365.668 378.315C364.623 375.402 364.795 372.561 366.235 369.959L365.668 378.315ZM389.636 388.394L389.668 388.333L389.682 388.265L389.687 388.241C390.261 388.354 390.839 388.477 391.422 388.618L392.57 388.897L391.97 387.879C390.497 385.376 388.238 383.01 386.977 381.695C385.038 379.668 382.282 377.306 379.643 375.495C378.323 374.589 377.02 373.813 375.853 373.285C374.708 372.767 373.614 372.45 372.745 372.564L372.744 372.564C372.74 372.565 372.735 372.565 372.729 372.566C372.662 372.574 372.482 372.594 372.317 372.719C372.167 372.833 372.067 373.001 371.983 373.153C371.502 374.023 371.513 374.971 371.778 375.873C372.041 376.769 372.563 377.655 373.161 378.459C374.358 380.067 375.939 381.45 376.69 382.069L376.691 382.07C379.945 384.743 383.648 386.662 385.755 387.312L385.757 387.312C386.701 387.599 387.682 387.818 388.703 388.025L388.691 388.086L389.625 388.416L389.636 388.394Z" fill="#FFB700" stroke="#FFB700"/>
<path d="M315.962 337.281L315.936 337.281C313.109 337.303 309.492 336.964 306.359 336.326C304.792 336.006 303.332 335.609 302.145 335.138C300.979 334.676 299.995 334.112 299.474 333.412M315.962 337.281L299.875 333.113M315.962 337.281L315.962 337.281M315.962 337.281L315.962 337.281M299.474 333.412C299.474 333.412 299.474 333.412 299.474 333.411L299.875 333.113M299.474 333.412C299.474 333.413 299.475 333.413 299.475 333.413L299.875 333.113M299.474 333.412C299.472 333.409 299.469 333.406 299.466 333.402C299.42 333.341 299.313 333.201 299.289 332.992C299.268 332.812 299.314 332.626 299.361 332.458L299.364 332.447L299.364 332.448C299.651 331.51 300.317 330.859 301.132 330.417C301.939 329.98 302.916 329.732 303.895 329.597C305.855 329.328 307.952 329.493 309.042 329.619M299.875 333.113C299.777 332.983 299.745 332.94 299.842 332.594C300.795 329.477 306.832 329.867 308.986 330.116L309.042 329.619C309.042 329.619 309.042 329.619 309.042 329.619M309.042 329.619C313.227 330.09 317.176 331.415 319.115 332.479C320.077 333.003 321.005 333.638 321.983 334.308C322.022 334.335 322.062 334.361 322.101 334.388L322.101 334.388C322.149 334.421 322.197 334.454 322.244 334.487C322.816 334.878 323.39 335.271 324 335.654L325.006 336.287L323.85 336.564C321.04 337.236 317.8 337.27 315.962 337.281M309.042 329.619L315.962 337.281M331.966 331.922C333.046 332.043 333.98 332.691 334.492 333.653L334.488 333.655C334.986 334.623 334.977 335.78 334.46 336.737C332.59 340.196 329.227 341.973 325.661 342.886C322.095 343.799 318.402 343.828 315.963 343.844H315.846C314.987 343.844 310.723 343.798 306.077 342.945C303.754 342.518 301.352 341.892 299.238 340.978C297.12 340.061 295.329 338.871 294.184 337.337C292.702 335.348 292.304 333.004 293.06 330.532L293.06 330.531C293.924 327.682 295.847 325.582 298.667 324.308C301.502 323.027 305.259 322.574 309.762 323.082C314.26 323.596 319.171 325.021 322.26 326.713L322.262 326.714C323.555 327.414 324.681 328.189 325.798 328.958L325.799 328.959L325.869 329.007C327.884 330.389 329.734 331.659 331.963 331.922L331.966 331.922Z" fill="#FFB700" stroke="#FFB700"/>
<path d="M346.259 363.015L346.265 363C348.2 363.362 350.117 364.498 351.927 366.061C353.745 367.631 355.42 369.601 356.859 371.56C359.736 375.476 361.625 379.287 361.77 379.587L361.771 379.589C362.844 381.779 364.467 385.098 365.241 388.699C366.015 392.297 365.924 396.099 363.662 399.315L363.661 399.317C363.052 400.188 362.048 400.714 360.98 400.715C359.823 400.695 358.822 400.138 358.223 399.231C357.002 397.36 355.045 396.27 352.931 395.092L352.845 395.044L352.845 395.044L352.799 395.018C351.632 394.365 350.446 393.701 349.251 392.874C346.373 390.863 342.899 387.107 340.437 383.307C337.974 379.503 336.706 375.941 336.59 372.834C336.475 369.743 337.497 367.086 339.658 365.039C341.536 363.262 343.812 362.578 346.259 363.015ZM353.02 387.485L353.802 388.026L353.802 387.993C354.388 388.362 355 388.707 355.625 389.055L355.603 389.095L356.042 389.335L356.481 389.574L356.499 389.541C357.015 389.828 357.528 390.117 358.042 390.432L359.053 391.052L358.791 389.895C358.163 387.126 356.771 384.268 355.965 382.612C355.945 382.572 355.926 382.533 355.907 382.494L355.906 382.492C354.668 379.972 352.75 376.886 350.779 374.36C349.794 373.097 348.786 371.963 347.834 371.106C346.904 370.269 345.963 369.637 345.107 369.477C345.009 369.455 344.92 369.456 344.882 369.456C344.88 369.456 344.877 369.456 344.875 369.456H344.874C344.855 369.456 344.802 369.456 344.733 369.471C344.669 369.485 344.608 369.508 344.551 369.538C344.442 369.594 344.326 369.68 344.192 369.802L344.192 369.802L344.185 369.809C343.463 370.492 343.185 371.399 343.165 372.341C343.144 373.275 343.373 374.278 343.7 375.226C344.354 377.123 345.444 378.922 345.969 379.738C348.249 383.278 351.204 386.229 353.02 387.485Z" fill="#FFB700" stroke="#FFB700"/>
<path d="M364.23 362.702C361.847 362.702 359.63 362.463 357.904 362.256L357.91 362.212L357.413 362.152L356.917 362.092L356.913 362.123C355.569 361.938 351.722 361.338 347.557 360.067C345.073 359.309 342.493 358.317 340.269 357.042C338.04 355.763 336.208 354.222 335.169 352.384L335.169 352.383C333.887 350.126 333.791 347.643 334.898 345.174C336.186 342.308 338.49 340.364 341.634 339.407C344.792 338.446 348.813 338.479 353.496 339.623L353.497 339.623C358.861 340.929 363.788 343.36 366.284 345.169C367.534 346.075 368.623 347.044 369.687 347.991L369.75 348.047L369.751 348.048L369.771 348.066C371.777 349.859 373.617 351.502 376.043 352.109L376.044 352.109C377.105 352.372 377.96 353.142 378.335 354.166L378.777 354.004L378.335 354.166C378.712 355.192 378.56 356.337 377.924 357.217L377.922 357.219C375.347 360.814 370.797 362.702 364.23 362.702ZM346.571 345.303H346.396L346.394 345.304C343.663 345.336 341.702 346.123 340.911 347.881L340.91 347.883C340.791 348.149 340.717 348.391 340.731 348.631C340.744 348.871 340.847 349.046 340.903 349.143C340.906 349.147 340.908 349.152 340.911 349.156C341.378 349.986 342.363 350.739 343.568 351.409C344.794 352.091 346.327 352.729 347.984 353.297C351.297 354.432 355.164 355.302 358.197 355.669L358.198 355.669L358.2 355.67C360.353 355.928 364.229 356.393 367.541 355.883L368.66 355.711L367.779 355C366.945 354.327 366.163 353.641 365.408 352.962L365.407 352.96C364.413 352.075 363.465 351.236 362.447 350.495L362.446 350.494C360.502 349.086 356.404 347.104 351.959 346.02L351.959 346.02L351.955 346.019C350.612 345.702 348.577 345.303 346.571 345.303Z" fill="#FFB700" stroke="#FFB700"/>
<path d="M68.5 501L57.5 531L83 523.5L94.5 510.5L120 480L148.5 451.5L196.5 418.5L155 426L128 442L83 475.5L68.5 501Z" fill="#155B0F"/>
<path d="M60 418.5L70 495.5L97 463.5L94 442L83 386L60 339L26.5 309H12.5L26.5 332L51 377.5L60 418.5Z" fill="#155B0F"/>
<path d="M207.639 412.295H207.487C198.712 412.674 168.815 414.535 152.263 422.78C135.621 431.068 118.547 442.538 100.108 457.827C99.5024 451.346 98.6044 444.053 97.4466 436.197C97.4466 408.194 109.609 389.984 135.718 378.872C137.644 378.049 138.531 375.82 137.72 373.905C136.897 371.979 134.679 371.081 132.753 371.903C112.551 380.506 99.7835 393.219 93.7892 410.727C93.1292 395.005 92.837 354.016 104.859 319.358C105.194 318.406 105.129 317.378 104.685 316.469C104.242 315.56 103.474 314.879 102.521 314.543C101.569 314.208 100.541 314.273 99.6324 314.716C98.7235 315.16 98.0418 315.928 97.7064 316.88C89.1475 341.562 86.5941 368.689 86.0313 388.07C81.4867 374.934 75.6761 361.765 68.3291 347.926C56.9897 326.567 36.9395 313.669 9.17578 295.813L5.8431 293.671C4.31743 292.686 2.29403 292.924 1.03899 294.255C-0.216186 295.575 -0.346002 297.609 0.714391 299.081L4.96675 304.957C33.9003 344.894 49.8384 366.903 54.9006 409.903C55.8204 417.704 57.0539 430.396 58.3631 443.825L58.4172 444.366C59.4235 454.699 60.4623 465.379 61.4361 474.63C61.6633 476.74 62.9185 487.755 65.9157 497.97C62.9834 503.639 60.3757 509.439 58.2008 514.384C57.8004 515.282 56.2423 519.134 54.9872 522.932C52.5851 530.182 52.4985 533.136 54.6734 535.073C55.4525 535.776 56.4804 536.166 57.5516 536.166C58.4064 536.166 59.2721 535.917 60.1052 535.441C62.6913 533.948 66.7273 532.963 70.6441 532C75.3836 530.831 80.2851 529.63 83.9747 527.315C89.4279 523.885 92.523 519.514 95.7906 514.893C96.8294 513.433 97.9006 511.918 99.0584 510.425C101.179 507.709 103.213 505.058 105.226 502.461C117.442 486.62 127.981 472.943 143.833 459.169C164.24 441.434 188.65 426.675 209.112 419.686L209.621 419.502V419.469C210.292 419.134 210.833 418.625 211.211 417.922C211.958 416.559 211.796 414.849 210.789 413.659C210.01 412.728 208.831 412.231 207.641 412.317L207.639 412.295ZM87.8456 468.346C81.7105 473.789 76.3114 480.335 71.3554 488.32C70.295 483.549 69.4834 478.56 68.9749 473.821C68.0011 464.602 66.9623 453.944 65.956 443.622L65.9128 443.135C64.5927 429.642 63.3592 416.885 62.4286 408.997C57.6462 368.345 42.703 344.442 18.7037 311.018C40.1712 325.203 53.4912 336.11 61.6387 351.475C76.2463 378.991 84.7294 403.865 89.1656 432.119C90.4748 440.472 92.2061 452.721 93.0068 463.833C91.2972 465.304 89.5767 466.808 87.8453 468.345L87.8456 468.346ZM65.1446 517.417C72.5566 500.558 79.7628 485.648 92.8769 474.006C115.989 453.49 135.931 439.37 155.645 429.556C162.083 426.353 172.157 423.735 184.882 421.96C169.159 430.119 152.929 441.209 138.863 453.425C122.437 467.697 111.671 481.655 99.1629 497.886C97.1937 500.44 95.1811 503.058 93.0819 505.742C91.8267 507.354 90.7014 508.945 89.5977 510.503C86.6546 514.668 84.1117 518.261 79.935 520.89C77.284 522.556 72.9883 523.617 68.8227 524.634C66.4747 525.207 64.0509 525.803 61.7786 526.549C62.7849 523.336 64.2457 519.462 65.1329 517.428L65.1446 517.417Z" fill="#43873D"/>
</g>
<defs>
<clipPath id="clip0_918_225">
<rect width="1750" height="621" fill="white"/>
</clipPath>
</defs>
</svg>
